<?xml version="1.0" encoding="UTF-8"?><svg xmlns="http://www.w3.org/2000/svg" xmlns:xlink="http://www.w3.org/1999/xlink" viewBox="0 0 42 72"><defs><style>.h{fill:#856542;filter:url(#d);}.i{fill:#7db6d4;filter:url(#f);}</style><filter id="d" filterUnits="userSpaceOnUse"><feOffset dx="0" dy="0"/><feGaussianBlur result="e" stdDeviation="2"/><feFlood flood-color="#000" flood-opacity=".6"/><feComposite in2="e" operator="in"/><feComposite in="SourceGraphic"/></filter><filter id="f" filterUnits="userSpaceOnUse"><feOffset dx="0" dy="0"/><feGaussianBlur result="g" stdDeviation="2"/><feFlood flood-color="#000" flood-opacity=".6"/><feComposite in2="g" operator="in"/><feComposite in="SourceGraphic"/></filter></defs><g id="a"/><g id="b"><g id="c"><path class="h" d="M32.8,48.79l-.11-14.87-23.67,.17,.11,14.87s-2.97,4.25-2.95,6.92c.04,5.58,6.73,10.05,14.95,9.99,8.22-.06,14.84-4.63,14.8-10.21-.02-2.67-3.14-6.87-3.14-6.87"/><path class="i" d="M33.43,49.14c.05-.7,.09-1.41,.08-2.13l-.18-24.1c-.07-9.33-5.07-16.93-11.11-16.88l-3.04,.02c-6.05,.04-10.94,7.71-10.87,17.04l.18,24.1c0,.72,.05,1.43,.11,2.13l24.83-.18Z"/></g></g></svg>