<?xml version="1.0" encoding="UTF-8"?><svg xmlns="http://www.w3.org/2000/svg" xmlns:xlink="http://www.w3.org/1999/xlink" viewBox="0 0 101.76 101.76"><defs><style>.f{fill:#272f2f;}.g{fill:#856542;filter:url(#d);}</style><filter id="d" filterUnits="userSpaceOnUse"><feOffset dx="0" dy="0"/><feGaussianBlur result="e" stdDeviation="2"/><feFlood flood-color="#000" flood-opacity=".6"/><feComposite in2="e" operator="in"/><feComposite in="SourceGraphic"/></filter></defs><g id="a"/><g id="b"><g id="c"><path class="g" d="M94.65,41c5.44,24.12-9.7,48.09-33.83,53.54-24.13,5.44-48.1-9.7-53.54-33.83C1.84,36.59,16.99,12.62,41.11,7.18c24.13-5.44,48.1,9.7,53.54,33.83"/><path class="f" d="M61.81,41.87c.15-1.1,.25-2.21,.33-3.33h32.43C89.36,19.93,72.23,6.27,51.88,6.27c-.37,0-.74,.02-1.11,.03-.23,0-.46-.03-.69-.03C27.45,6.27,8.79,23.17,6.1,44.99c-.02,0,.02,.07,.08,.16-.28,1.88-.43,3.8-.43,5.75,0,13.19,5.61,25.31,15.65,32.39,9.31-1.67,18.64-6.45,25.3-12.59,8.31-7.16,13.93-17.34,15.11-28.84"/></g></g></svg>