<?xml version="1.0" encoding="UTF-8"?><svg xmlns="http://www.w3.org/2000/svg" viewBox="0 0 56.57 56.57"><defs><style>.d{fill:#667a8f;}.d,.e,.f,.g{fill-rule:evenodd;}.e{fill:#a3b7cc;}.h{fill:none;stroke:#a3b7cc;stroke-linecap:square;stroke-miterlimit:1.07;stroke-width:.09px;}.f{fill:#839cb1;}.g{fill:#e0eaf1;}</style></defs><g id="a"/><g id="b"><g id="c"><path class="g" d="M28.29,55.83C13.1,55.83,.75,43.47,.75,28.29S13.1,.74,28.29,.74s27.54,12.35,27.54,27.54-12.36,27.54-27.54,27.54"/><path class="e" d="M28.29,1.49c14.78,0,26.8,12.02,26.8,26.8s-12.02,26.8-26.8,26.8S1.49,43.06,1.49,28.29,13.51,1.49,28.29,1.49m0-1.49C12.67,0,0,12.66,0,28.29s12.67,28.28,28.29,28.28,28.29-12.67,28.29-28.28S43.91,0,28.29,0"/><line class="h" x1="22.23" y1="26.27" x2="8.49" y2="21.21"/><line class="h" x1="28.29" y1="7.07" x2="28.29" y2="18.18"/><line class="h" x1="26.27" y1="28.29" x2="15.56" y2="45.26"/><line class="h" x1="41.01" y1="45.26" x2="32.33" y2="32.33"/><line class="h" x1="48.09" y1="21.21" x2="34.35" y2="26.27"/><path class="f" d="M34.88,52.89l5.8-9.11,9.9-3.57,.84,2.95c-3.37,5.23-8.41,9.18-14.25,11.17l-2.3-1.45Zm-15.52,1.44c-5.83-2-10.86-5.94-14.22-11.17l.84-2.95,9.9,3.57,5.65,8.97-2.18,1.58Zm2.39-17.86l-3.9-11.93,10.44-7.26,10.43,7.26-3.9,11.93h-13.07ZM.75,27.98c.07-6.31,2.32-12.42,6.37-17.28l2.56,.37v11L2.93,30.16l-2.18-2.18Zm46.15-5.92V11.07l2.56-.37c4.05,4.86,6.3,10.98,6.37,17.28l-2.04,2.04-6.89-7.97ZM18.88,5.47l1.5-3.54c2.59-.79,5.25-1.19,7.91-1.19s5.32,.4,7.91,1.19l1.5,3.54-9.41,2.69-9.41-2.69Z"/><path class="d" d="M28.29,1.49c2.48,0,4.95,.36,7.36,1.06l1.03,2.44-8.39,2.4-8.39-2.4,1.03-2.44c2.42-.7,4.89-1.06,7.36-1.06m20.86,10c3.71,4.6,5.8,10.29,5.93,16.18l-1.25,1.25-6.18-7.15V11.71l1.51-.22m-41.72,0l1.5,.22v10.08l-6.05,7.27-1.38-1.38c.13-5.89,2.22-11.58,5.93-16.18m20.86,6.7l9.55,6.65-3.56,10.89h-11.98l-3.56-10.89,9.55-6.65M6.48,41.19l8.91,3.21,5.15,8.16-1.29,.94c-5.41-1.94-10.09-5.62-13.29-10.46l.53-1.86m43.61,0l.53,1.85c-3.21,4.85-7.91,8.54-13.35,10.48l-1.36-.86,5.27-8.26,8.91-3.21M28.29,0c-2.95,0-5.79,.47-8.46,1.32l-1.96,4.63,10.42,2.98,10.42-2.98-1.96-4.63c-2.67-.85-5.51-1.32-8.46-1.32m21.47,9.9l-3.61,.52v11.91l7.59,8.78,2.83-2.83c0-7.03-2.58-13.44-6.82-18.39m-42.94,0C2.58,14.84,0,21.26,0,28.29l2.98,2.98,7.44-8.93V10.42l-3.61-.52Zm21.47,6.48l-11.31,7.87,4.24,12.97h14.14l4.24-12.97-11.31-7.87ZM5.48,39.25l-1.15,4.04c3.48,5.55,8.82,9.8,15.15,11.87l3.05-2.21-6.16-9.77-10.9-3.93Zm45.61,0l-10.89,3.93-6.34,9.95,3.23,2.03c6.34-2.07,11.67-6.33,15.15-11.87l-1.14-4.04Z"/></g></g></svg>